<svg xmlns="http://www.w3.org/2000/svg" xmlns:xlink="http://www.w3.org/1999/xlink" width="38" height="53" viewBox="0 0 38 53"><defs><path id="b8opa" d="M1348.96 602a2.99 2.99 0 0 1 3.04 2.93v44.14a2.99 2.99 0 0 1-3.04 2.93h-29.92a2.99 2.99 0 0 1-3.04-2.93v-44.14a2.99 2.99 0 0 1 3.04-2.93zm-27.79 6.83v5.27c0 .27.23.49.5.49h24.65a.5.5 0 0 0 .5-.49v-5.27a.5.5 0 0 0-.5-.49h-24.64a.5.5 0 0 0-.51.5zm5.55 37.4v-4.38a.5.5 0 0 0-.5-.49h-4.54a.5.5 0 0 0-.5.49v4.37c0 .27.22.49.5.49h4.54a.5.5 0 0 0 .5-.49zm0-9.52v-4.38a.5.5 0 0 0-.5-.49h-4.54a.5.5 0 0 0-.5.5v4.37c0 .27.22.48.5.48h4.54a.5.5 0 0 0 .5-.48zm0-9.52v-4.37a.5.5 0 0 0-.5-.49h-4.54a.5.5 0 0 0-.5.49v4.37c0 .27.22.49.5.49h4.54a.5.5 0 0 0 .5-.49zm10.06 19.03v-4.37a.5.5 0 0 0-.51-.49h-4.54a.5.5 0 0 0-.5.49v4.37c0 .27.22.49.5.49h4.54a.5.5 0 0 0 .5-.49zm0-9.51v-4.38a.5.5 0 0 0-.51-.49h-4.54a.5.5 0 0 0-.5.5v4.37c0 .27.22.48.5.48h4.54a.5.5 0 0 0 .5-.48zm0-9.52v-4.37a.5.5 0 0 0-.51-.49h-4.54a.5.5 0 0 0-.5.49v4.37c0 .27.22.49.5.49h4.54a.5.5 0 0 0 .5-.49zm10.05 19.03v-4.37a.5.5 0 0 0-.5-.49h-4.55a.5.5 0 0 0-.5.49v4.37c0 .27.22.49.5.49h4.54a.5.5 0 0 0 .5-.49zm0-9.51v-4.38a.5.5 0 0 0-.5-.49h-4.55a.5.5 0 0 0-.5.5v4.37c0 .27.22.48.5.48h4.54a.5.5 0 0 0 .5-.48zm0-9.52v-4.37a.5.5 0 0 0-.5-.49h-4.55a.5.5 0 0 0-.5.49v4.37c0 .27.22.49.5.49h4.54a.5.5 0 0 0 .5-.49z"/></defs><g><g transform="translate(-1315 -600)"><use fill="#fff" xlink:href="#b8opa"/></g></g></svg>