<svg xmlns="http://www.w3.org/2000/svg" xmlns:xlink="http://www.w3.org/1999/xlink" width="30" height="39" viewBox="0 0 30 39"><defs><path id="ms1ia" d="M1047.95 637.37h-.11c.07.22.11.46.11.7 0 .98-.64 1.8-1.5 2.04.09.24.14.5.14.78 0 1.16-.92 2.11-2.04 2.11h-19.1a2.08 2.08 0 0 1-2.04-2.11c0-.97.64-1.8 1.5-2.03-.09-.25-.14-.5-.14-.78 0-1.17.92-2.11 2.05-2.11h.12a2.16 2.16 0 0 1 0-1.4h-1.49a2.08 2.08 0 0 1-2.04-2.12c0-1.16.92-2.1 2.04-2.1h4a12.44 12.44 0 0 1-6.45-10.98c0-6.82 5.38-12.37 12-12.37s12 5.55 12 12.37c0 4.76-2.62 8.9-6.45 10.97h4c1.12 0 2.04.95 2.04 2.11 0 .25-.04.49-.12.7h1.48c1.13 0 2.05.95 2.05 2.12 0 1.16-.92 2.1-2.05 2.1zm-21.13 0a.7.7 0 0 0-.68.7c0 .4.3.71.68.71h19.09a.7.7 0 0 0 .68-.7.7.7 0 0 0-.68-.7h-19.1zm18.82-18c0-6.04-4.78-10.96-10.64-10.96s-10.64 4.92-10.64 10.96c0 6.05 4.78 10.97 10.64 10.97s10.64-4.92 10.64-10.97zm-1.1 12.38h-19.09c-.77 0-.77 1.4 0 1.4h19.1a.7.7 0 0 0 .68-.7.7.7 0 0 0-.68-.7zm-12.04-7.97v2.49h-.03c0 .07 0 .15-.03.23a.83.83 0 0 1-.8.6.82.82 0 0 1-.23-.03.85.85 0 0 1-.59-.8h-.02v-2.5h-.57a.76.76 0 0 1-.75-.76c0-.43.33-.77.75-.77h.57v-8.46-.73h4.84c.85 0 1.5.04 1.95.12a3.22 3.22 0 0 1 2.61 1.9c.26.54.4 1.14.4 1.8 0 1.12-.36 2.08-1.05 2.85-.7.78-1.95 1.17-3.76 1.17h-3.3v1.35h2.39c.41 0 .75.34.75.77 0 .42-.34.77-.75.77zm3.31-4.45c1.1 0 1.88-.2 2.34-.63.46-.42.7-1.01.7-1.78 0-.55-.14-1.02-.42-1.42a1.9 1.9 0 0 0-1.07-.78 7.05 7.05 0 0 0-1.58-.11h-3.28v4.72z"/></defs><g><g transform="translate(-1021 -605)"><use fill="#f57c00" xlink:href="#ms1ia"/></g></g></svg>