<svg xmlns="http://www.w3.org/2000/svg" xmlns:xlink="http://www.w3.org/1999/xlink" width="39" height="38" viewBox="0 0 39 38"><defs><path id="9md5a" d="M743.5 634.53c.58 0 1.06.47 1.06 1.06v6.35a1.06 1.06 0 1 1-2.11 0v-6.35c0-.59.47-1.06 1.05-1.06zm-5.8-1.56c.5.3.68.94.38 1.45l-3.16 5.5a1.05 1.05 0 0 1-1.44.38c-.5-.29-.68-.94-.39-1.44l3.17-5.5c.29-.5.93-.68 1.44-.4zm-4.25-4.26c.3.5.12 1.15-.38 1.44l-5.48 3.18a1.05 1.05 0 0 1-1.45-.39c-.29-.5-.11-1.15.39-1.44l5.48-3.18c.5-.3 1.15-.12 1.44.39zm27.02 2.79a1.05 1.05 0 1 1-1.06 1.83l-5.48-3.18a1.06 1.06 0 0 1 1.06-1.83zm-9.73 1.86l3.17 5.5a1.06 1.06 0 0 1-.92 1.59c-.36 0-.71-.2-.91-.53l-3.16-5.5a1.05 1.05 0 0 1 1.83-1.06zM747.72 607c.58 0 1.05.47 1.05 1.05v6.9a9.54 9.54 0 0 1-5.26 17.45 9.52 9.52 0 0 1-5.28-17.45v-6.9c0-.58.47-1.05 1.05-1.05h8.44zm-7.38 5.29v2.12h6.32v-2.12h-1.05a1.06 1.06 0 0 1 0-2.12h1.05v-1.06h-6.32v1.06h1.05a1.06 1.06 0 0 1 0 2.12zm4.22 8.47v2.12h1.05a1.06 1.06 0 0 0 0-2.12zm2.63 8.53a7.44 7.44 0 0 0 .11-12.77h-2.74v2.12h1.05a3.17 3.17 0 0 1 0 6.35h-4.22a3.17 3.17 0 0 1 0-6.35h1.06v-2.12h-2.75a7.4 7.4 0 1 0 7.5 12.77zm-4.74-8.53h-1.06a1.06 1.06 0 0 0 0 2.12h1.06z"/></defs><g><g transform="translate(-724 -606)"><use fill="#f57c00" xlink:href="#9md5a"/></g></g></svg>