<svg xmlns="http://www.w3.org/2000/svg" xmlns:xlink="http://www.w3.org/1999/xlink" width="37" height="39" viewBox="0 0 37 39"><defs><path id="rvnna" d="M448.96 638.72c.3-.3.78-.3 1.08 0 .3.3.3.77 0 1.06-.3.3-.78.3-1.08 0a.74.74 0 0 1 0-1.06zm0-3c.3-.3.78-.3 1.08 0 .3.3.3.77 0 1.06-.3.3-.78.3-1.08 0a.74.74 0 0 1 0-1.06zm15.15-1.55a4.12 4.12 0 0 1 2.89 3.9V643h-35v-4.93a4.12 4.12 0 0 1 2.88-3.9l.13-.04c1.9-.5 2.54-.98 3.38-1.3 2.01-.75 3.02-1.36 3.53-1.8l.43-3.18a12.9 12.9 0 0 1-2.66-6.6h-.82c-.42 0-.6-.3-.4-.66 0 0 .23-.43.87-1v-1.86c0-5.26 4.22-9.56 9.4-9.95v-.03c0-.41.34-.75.76-.75s.76.34.76.75v.03c5.17.39 9.4 4.7 9.4 9.95v1.86c.64.57.88 1 .88 1 .2.36.01.66-.4.66h-.83a12.9 12.9 0 0 1-2.67 6.6l.44 3.19c.5.43 1.52 1.04 3.53 1.8.84.3 1.48.79 3.37 1.29zm-23.24-16.44v.8c1.66-.91 4.37-1.78 8.63-1.78 4.26 0 6.97.87 8.63 1.78v-.8c0-1.14-.23-2.25-.69-3.3a8.78 8.78 0 0 0-7.94-5.19 8.58 8.58 0 0 0-6.07 2.5c-.8.78-1.43 1.69-1.87 2.7a8.18 8.18 0 0 0-.7 3.29zm16.35 2.02c-.8-.42-1.75-.75-2.81-1-1.44-.33-3.09-.5-4.91-.5-1.82 0-3.47.17-4.9.5-1.07.25-2.02.58-2.82 1zm-16 1.5a11.9 11.9 0 0 0 3.1 6.61c.88.99 1.86 1.8 2.84 2.38.88.51 1.7.8 2.34.8.63 0 1.46-.29 2.34-.8.98-.57 1.96-1.4 2.84-2.38a11.9 11.9 0 0 0 3.1-6.61zm5.23 20.25v-6.45l-.27.22a.77.77 0 0 1-1.07-.07l-2.53-2.77c-1.04.77-2.49 1.37-3.64 1.8l-.67.3c-.63.3-1.42.67-2.85 1.04l-.08.03a2.62 2.62 0 0 0-1.81 2.47v3.43zm-.7-7.85l1.82-1.54a11.86 11.86 0 0 1-3.89-2.71l-.23 1.73zm5.28 7.85v-7.75l-1.44-1.22h-.18l-1.44 1.22v7.75zm.4-9.39l1.82 1.54 2.3-2.52-.23-1.73a11.86 11.86 0 0 1-3.89 2.71zm14.04 9.39v-3.43c0-1.12-.73-2.1-1.81-2.47l-.09-.03c-1.42-.37-2.21-.75-2.84-1.04a9.15 9.15 0 0 0-.67-.3 15.7 15.7 0 0 1-3.64-1.8l-2.54 2.77a.77.77 0 0 1-1.06.07l-.27-.22v6.45zm-15.34-25.83a.77.77 0 0 1-1.06.2.74.74 0 0 1-.2-1.04l.72-1.06h-1.62a.77.77 0 0 1-.67-.4.74.74 0 0 1 .04-.77l1.53-2.23a.77.77 0 0 1 1.05-.21c.35.23.45.7.21 1.04l-.73 1.07h1.63c.28 0 .54.15.67.4.13.24.12.53-.04.76z"/></defs><g><g transform="translate(-431 -605)"><use fill="#f57c00" xlink:href="#rvnna"/></g></g></svg>