<svg width="42" height="49" viewBox="0 0 42 49" fill="none" xmlns="http://www.w3.org/2000/svg">
<path d="M32.8259 8.7232L31.0025 13.5397L35.33 16.0469V17.7421V25.8265V32.8304L34.3085 33.4452L24.4621 39.1954L20.9613 41.2346L17.8735 39.4159L8.68376 34.0591L6.59262 32.8304V27.1787V19.3396V16.0469L18.6031 9.04301L17.0709 15.776L15.1745 24.0575L14.1297 28.6038L21.982 27.4737L21.2043 31.184L20.0127 37.0329L23.8062 31.184L28.6436 23.7136L30.4188 20.9611L23.0035 21.6986L25.4106 15.3095L26.9662 11.1807L28.3036 7.64192L29.3492 4.89021L20.9613 0L20.6205 0.196385L0.00402832 12.2131V15.8257V23.591V31.3804V36.6642L1.90034 37.7703L8.85376 41.8493L20.9613 48.9021L33.9196 41.3331L40.8241 37.303L41.9186 36.6642V30.029V21.8709V13.6872V12.2131L33.3848 7.24915L32.8259 8.7232Z" fill="#FF6E02"/>
</svg>
